<svg width="107" height="7" viewBox="0 0 107 7" fill="none" xmlns="http://www.w3.org/2000/svg">
<path fill-rule="evenodd" clip-rule="evenodd" d="M0.999957 0.999705H5.99999V5.99986H0.999957V0.999705Z" fill="#B3AEB5"/>
<path fill-rule="evenodd" clip-rule="evenodd" d="M10.9999 0.999705H16V5.99986H10.9999V0.999705Z" fill="#B3AEB5"/>
<path fill-rule="evenodd" clip-rule="evenodd" d="M21 0.999705H25.9999V5.99986H21V0.999705Z" fill="#B3AEB5"/>
<path fill-rule="evenodd" clip-rule="evenodd" d="M31 0.999705H36V5.99986H31V0.999705Z" fill="#B3AEB5"/>
<path fill-rule="evenodd" clip-rule="evenodd" d="M40.9999 0.999705H46V5.99986H40.9999V0.999705Z" fill="#B3AEB5"/>
<path fill-rule="evenodd" clip-rule="evenodd" d="M51 0.999705H55.9999V5.99986H51V0.999705Z" fill="#B3AEB5"/>
<path fill-rule="evenodd" clip-rule="evenodd" d="M61 0.999705H66V5.99986H61V0.999705Z" fill="#B3AEB5"/>
<path fill-rule="evenodd" clip-rule="evenodd" d="M70.9999 0.999705H76V5.99986H70.9999V0.999705Z" fill="#B3AEB5"/>
<path fill-rule="evenodd" clip-rule="evenodd" d="M81 0.999705H85.9999V5.99986H81V0.999705Z" fill="#B3AEB5"/>
<path fill-rule="evenodd" clip-rule="evenodd" d="M91 0.999705H96V5.99986H91V0.999705Z" fill="#B3AEB5"/>
<path fill-rule="evenodd" clip-rule="evenodd" d="M101 0.999705H106V5.99986H101V0.999705Z" fill="#B3AEB5"/>
</svg>
