<?xml version="1.0" encoding="UTF-8"?>
<!DOCTYPE svg PUBLIC "-//W3C//DTD SVG 1.1//EN" "http://www.w3.org/Graphics/SVG/1.1/DTD/svg11.dtd">
<!-- Creator: CorelDRAW X7 -->
<svg xmlns="http://www.w3.org/2000/svg" xml:space="preserve" width="70.509mm" height="68.739mm" version="1.1" style="shape-rendering:geometricPrecision; text-rendering:geometricPrecision; image-rendering:optimizeQuality; fill-rule:evenodd; clip-rule:evenodd"
viewBox="0 0 7051 6874"
 xmlns:xlink="http://www.w3.org/1999/xlink">
 <defs>
  <style type="text/css">
   <![CDATA[
    .fil1 {fill:#000}
    .fil4 {fill:#2B2A29;fill-rule:nonzero}
    .fil2 {fill:url(#id0)}
    .fil3 {fill:url(#id1)}
    .fil0 {fill:url(#id2)}
   ]]>
  </style>
  <linearGradient id="id0" gradientUnits="userSpaceOnUse" x1="2749.34" y1="3454.79" x2="1375.02" y2="3419.11">
   <stop offset="0" style="stop-opacity:1; stop-color:#000"/>
   <stop offset="1" style="stop-opacity:1; stop-color:#000"/>
  </linearGradient>
  <linearGradient id="id1" gradientUnits="userSpaceOnUse" xlink:href="#id0" x1="2749.34" y1="6204.35" x2="1375.02" y2="6168.66">
  </linearGradient>
  <linearGradient id="id2" gradientUnits="userSpaceOnUse" xlink:href="#id0" x1="2749.56" y1="687.39" x2="4124.34" y2="687.39">
  </linearGradient>
 </defs>
 <g id="Слой_x0020_1">
  <metadata id="CorelCorpID_0Corel-Layer"/>
  <g id="_2633887826048">
   <g>
    <polygon class="fil0" points="2750,0 4124,0 4124,1375 2750,1375 1375,1375 1375,0 "/>
    <polygon class="fil1" points="5499,5499 5499,6874 4124,6874 4124,5499 4124,4124 4124,2750 4124,1375 4124,0 5499,1375 5499,2750 5499,4124 "/>
    <polygon class="fil2" points="1375,2750 2750,2750 3437,2750 3437,4124 2750,4124 1375,4124 "/>
    <polygon class="fil3" points="1375,5499 2750,5499 3437,5499 3437,6874 2750,6874 1375,6874 "/>
    <polygon class="fil1" points="1375,6874 1375,5499 1375,4124 1375,2750 0,4124 0,5499 "/>
   </g>
   <path class="fil4" d="M6481 6793l-97 13c-21,-119 -31,-227 -31,-325 0,-81 16,-141 49,-179 33,-39 90,-58 171,-58l466 0 0 106 -106 13c79,77 118,166 118,267 0,62 -17,112 -50,150 -33,37 -80,56 -139,56l-70 0c-53,0 -94,-17 -123,-50 -29,-34 -44,-80 -44,-141l0 -268 -52 0c-41,1 -69,11 -85,29 -15,18 -23,53 -23,104 0,52 5,146 16,283zm329 -92l36 0c32,0 56,-7 71,-23 14,-15 22,-40 22,-75 0,-79 -31,-155 -93,-226l-121 0 0 244c1,29 9,50 23,62 15,12 35,18 62,18z"/>
   <polygon id="1" class="fil4" points="6370,5432 7039,5432 7039,5564 6735,5564 6735,5894 7039,5894 7039,6024 6370,6024 6370,5894 6633,5894 6633,5564 6370,5564 "/>
   <path id="2" class="fil4" d="M6481 5202l-97 12c-21,-118 -31,-226 -31,-324 0,-81 16,-141 49,-179 33,-39 90,-58 171,-58l466 0 0 105 -106 14c79,77 118,166 118,267 0,62 -17,112 -50,149 -33,38 -80,57 -139,57l-70 0c-53,0 -94,-17 -123,-50 -29,-34 -44,-81 -44,-141l0 -268 -52 0c-41,1 -69,10 -85,29 -15,18 -23,53 -23,104 0,52 5,146 16,283zm329 -92l36 0c32,0 56,-7 71,-23 14,-15 22,-41 22,-75 0,-80 -31,-155 -93,-226l-121 0 0 244c1,29 9,50 23,62 15,12 35,18 62,18z"/>
   <path id="3" class="fil4" d="M6370 3867l669 0 0 133 -566 0 0 134c0,27 6,47 18,58 12,12 33,20 64,24 170,22 283,43 338,62 105,33 155,106 152,220l-101 14c-8,-36 -18,-61 -31,-77 -12,-16 -31,-29 -57,-39 -55,-21 -163,-40 -324,-55 -55,-7 -95,-24 -122,-53 -26,-29 -40,-72 -40,-129l0 -292z"/>
   <path id="4" class="fil4" d="M7039 3047l0 119 -423 0c-12,0 -29,-1 -50,-2 -22,-1 -36,-2 -44,-2l0 3c25,9 52,25 83,47l434 322 0 107 -669 0 0 -118 425 0c27,0 57,2 90,4l0 -4c-34,-17 -61,-33 -79,-46l-436 -323 0 -107 669 0z"/>
   <polygon id="5" class="fil4" points="6479,2284 6479,2521 7039,2521 7039,2654 6479,2654 6479,2891 6370,2891 6370,2284 "/>
   <path id="6" class="fil4" d="M7039 1535l0 119 -423 0c-12,0 -29,-1 -50,-2 -22,-1 -36,-2 -44,-2l0 3c25,9 52,25 83,48l434 321 0 107 -669 0 0 -118 425 0c27,0 57,2 90,5l0 -5c-34,-17 -61,-32 -79,-46l-436 -323 0 -107 669 0z"/>
   <path id="7" class="fil4" d="M6689 989l3 0c3,-22 7,-42 13,-59 6,-16 13,-31 19,-45 7,-13 19,-26 36,-39 17,-13 32,-23 45,-32 13,-9 34,-19 63,-31 29,-12 54,-21 75,-29 21,-8 53,-20 96,-35l0 138c-46,18 -79,30 -98,38 -20,8 -44,18 -73,31 -29,12 -48,23 -59,33 -11,9 -23,20 -36,34 -13,15 -21,29 -25,45 -3,15 -5,34 -5,55l0 91c23,-4 43,-6 61,-6l235 0 0 131 -669 0 0 -131 193 0c24,0 50,2 77,6l0 -83c0,-59 -19,-102 -58,-130 -39,-28 -109,-60 -212,-96l0 -137c42,16 70,26 85,32 15,5 37,14 66,26 29,13 49,22 59,30 10,7 24,17 41,29 17,12 29,25 36,36 6,12 12,26 19,43 6,16 11,35 13,55z"/>
   <path id="8" class="fil4" d="M6481 549l-97 12c-21,-118 -31,-226 -31,-324 0,-81 16,-141 49,-179 33,-39 90,-58 171,-58l466 0 0 105 -106 14c79,77 118,166 118,267 0,62 -17,112 -50,149 -33,38 -80,56 -139,56l-70 0c-53,0 -94,-16 -123,-50 -29,-33 -44,-80 -44,-140l0 -268 -52 0c-41,1 -69,10 -85,29 -15,18 -23,53 -23,104 0,52 5,146 16,283zm329 -92l36 0c32,0 56,-7 71,-23 14,-16 22,-41 22,-75 0,-80 -31,-155 -93,-226l-121 0 0 244c1,29 9,49 23,62 15,12 35,18 62,18z"/>
  </g>
 </g>
</svg>
