<svg xmlns="http://www.w3.org/2000/svg" xmlns:xlink="http://www.w3.org/1999/xlink"  width="120" height="120" viewBox="0 0 120 120">
						<path fill-rule="evenodd" fill="#000"
							d="M112.504,110.004 L107.504,110.004 L107.504,115.004 L110.004,115.004 L110.004,120.004 L90.002,120.004 L90.002,115.004 L92.503,115.004 L92.503,110.004 L87.502,110.004 C83.360,110.004 80.002,106.646 80.002,102.503 L80.002,87.502 C80.002,83.359 83.360,80.001 87.502,80.001 L112.504,80.001 C116.647,80.001 120.005,83.359 120.005,87.502 L120.005,102.503 C120.005,106.646 116.647,110.004 112.504,110.004 ZM97.503,115.004 L102.503,115.004 L102.503,110.004 L97.503,110.004 L97.503,115.004 ZM115.004,87.502 C115.004,86.121 113.885,85.001 112.504,85.001 L87.502,85.001 C86.121,85.001 85.002,86.121 85.002,87.502 L85.002,102.503 C85.002,103.884 86.121,105.003 87.502,105.003 L112.504,105.003 C113.885,105.003 115.004,103.884 115.004,102.503 L115.004,87.502 ZM60.000,80.001 C37.907,80.001 19.997,62.091 19.997,39.997 C19.997,17.904 37.907,-0.005 60.000,-0.005 C82.093,-0.005 100.003,17.904 100.003,39.997 C99.977,62.080 82.082,79.975 60.000,80.001 ZM48.632,73.102 C46.150,69.726 44.086,65.250 42.598,59.999 L31.307,59.999 C35.512,66.022 41.551,70.671 48.632,73.102 ZM28.379,54.999 L41.413,54.999 C40.647,51.112 40.167,46.916 40.036,42.498 L25.098,42.498 C25.412,46.946 26.558,51.165 28.379,54.999 ZM25.096,37.498 L40.057,37.498 C40.189,33.087 40.644,28.879 41.408,24.997 L28.370,24.997 C26.548,28.831 25.411,33.051 25.096,37.498 ZM31.281,19.996 L42.601,19.996 C44.087,14.750 46.147,10.277 48.626,6.902 C41.546,9.337 35.488,13.968 31.281,19.996 ZM57.500,5.570 C53.835,7.228 50.224,12.399 47.833,19.996 L57.500,19.996 L57.500,5.570 ZM57.500,24.997 L46.523,24.997 C45.713,28.763 45.207,32.972 45.063,37.498 L57.500,37.498 L57.500,24.997 ZM57.500,42.498 L45.043,42.498 C45.186,47.037 45.724,51.225 46.537,54.999 L57.500,54.999 L57.500,42.498 ZM57.500,59.999 L47.855,59.999 C50.245,67.582 53.843,72.760 57.500,74.423 L57.500,59.999 ZM62.500,74.423 C66.157,72.760 69.755,67.582 72.145,59.999 L62.500,59.999 L62.500,74.423 ZM62.500,54.999 L73.463,54.999 C74.276,51.225 74.814,47.037 74.957,42.498 L62.500,42.498 L62.500,54.999 ZM62.500,37.498 L74.937,37.498 C74.793,32.972 74.287,28.763 73.477,24.997 L62.500,24.997 L62.500,37.498 ZM62.500,5.570 L62.500,19.996 L72.167,19.996 C69.776,12.399 66.165,7.228 62.500,5.570 ZM71.384,6.916 C73.859,10.290 75.915,14.757 77.399,19.996 L88.700,19.996 C84.497,13.980 78.450,9.356 71.384,6.916 ZM91.616,24.997 L78.592,24.997 C79.356,28.879 79.811,33.087 79.943,37.498 L94.902,37.498 C94.582,33.050 93.441,28.831 91.616,24.997 ZM94.902,42.498 L79.964,42.498 C79.833,46.916 79.353,51.112 78.587,54.999 L91.621,54.999 C93.442,51.165 94.588,46.946 94.902,42.498 ZM77.401,59.999 C75.914,65.250 73.850,69.726 71.368,73.102 C78.449,70.671 84.488,66.022 88.693,59.999 L77.401,59.999 ZM39.998,87.502 L39.998,102.503 C39.998,106.646 36.640,110.004 32.498,110.004 L27.497,110.004 L27.497,115.004 L29.998,115.004 L29.998,120.004 L9.996,120.004 L9.996,115.004 L12.496,115.004 L12.496,110.004 L7.496,110.004 C3.353,110.004 -0.005,106.646 -0.005,102.503 L-0.005,87.502 C-0.005,83.359 3.353,80.001 7.496,80.001 L32.498,80.001 C36.640,80.001 39.998,83.359 39.998,87.502 ZM17.496,115.004 L22.497,115.004 L22.497,110.004 L17.496,110.004 L17.496,115.004 ZM4.995,87.502 L4.995,102.503 C4.995,103.884 6.115,105.003 7.496,105.003 L32.498,105.003 C33.879,105.003 34.998,103.884 34.998,102.503 L34.998,87.502 C34.998,86.121 33.879,85.001 32.498,85.001 L7.496,85.001 C6.115,85.001 4.995,86.121 4.995,87.502 ZM57.500,85.001 L62.500,85.001 L62.500,92.502 L75.001,92.502 L75.001,97.502 L44.999,97.502 L44.999,92.502 L57.500,92.502 L57.500,85.001 Z" />
					</svg>