<svg xmlns="http://www.w3.org/2000/svg" xmlns:xlink="http://www.w3.org/1999/xlink"  width="120" height="120" viewBox="0 0 120 120">
<path fill-rule="evenodd"  fill="#000"
 d="M120.253,112.290 L113.278,119.265 C112.810,119.737 112.174,120.004 111.510,120.006 C110.847,120.006 110.211,119.742 109.742,119.273 L94.049,103.576 C93.073,102.600 93.073,101.017 94.049,100.041 L95.769,98.321 L90.497,93.048 C85.640,97.084 79.510,99.326 73.144,99.326 C58.142,99.327 45.980,87.165 45.979,72.162 C45.979,57.158 58.140,44.996 73.142,44.995 C80.347,44.995 87.257,47.858 92.352,52.954 C102.361,62.965 102.913,78.839 94.030,89.511 L99.305,94.785 L101.025,93.065 C101.493,92.596 102.129,92.333 102.792,92.333 C103.455,92.333 104.091,92.596 104.560,93.065 L120.253,108.754 C121.229,109.731 121.229,111.313 120.253,112.290 ZM95.300,72.171 C95.302,66.294 92.970,60.657 88.817,56.498 C84.672,52.324 79.027,49.983 73.144,49.998 C60.903,49.994 50.977,59.914 50.973,72.155 C50.969,84.397 60.888,94.324 73.129,94.328 C85.369,94.332 95.295,84.412 95.300,72.171 ZM102.792,98.368 L99.352,101.808 L111.510,113.970 L114.950,110.530 L102.792,98.368 ZM73.484,59.999 L73.484,54.999 C83.145,55.010 90.973,62.839 90.984,72.500 L85.984,72.500 C85.976,65.600 80.384,60.008 73.484,59.999 ZM10.982,42.497 L15.982,42.497 L15.982,47.498 L10.982,47.498 L10.982,42.497 ZM15.982,57.499 C15.982,58.880 17.101,59.999 18.482,59.999 L23.482,59.999 L23.482,65.000 L18.482,65.000 C14.340,65.000 10.982,61.642 10.982,57.499 L10.982,52.498 L15.982,52.498 L15.982,57.499 ZM38.483,24.996 C37.327,24.996 36.246,24.713 35.269,24.246 L25.250,34.265 L21.715,30.729 L31.733,20.711 C31.266,19.733 30.983,18.651 30.983,17.495 C30.983,13.353 34.340,9.994 38.483,9.994 C42.625,9.994 45.983,13.353 45.983,17.495 C45.983,18.655 45.698,19.740 45.227,20.721 L52.758,28.252 C53.738,27.782 54.823,27.496 55.983,27.496 C58.568,27.496 60.846,28.804 62.195,30.794 L67.277,21.703 C66.461,20.503 65.984,19.055 65.984,17.495 C65.984,13.353 69.341,9.994 73.484,9.994 C77.626,9.994 80.984,13.353 80.984,17.495 C80.984,21.637 77.626,24.996 73.484,24.996 C72.330,24.996 71.251,24.714 70.274,24.249 L62.737,31.787 C63.202,32.764 63.483,33.844 63.483,34.997 C63.483,39.139 60.126,42.497 55.983,42.497 C51.841,42.497 48.483,39.139 48.483,34.997 C48.483,33.846 48.763,32.768 49.227,31.793 L41.686,24.252 C40.712,24.715 39.634,24.996 38.483,24.996 ZM38.483,14.995 C37.102,14.995 35.983,16.114 35.983,17.495 C35.983,18.876 37.102,19.995 38.483,19.995 C39.863,19.995 40.983,18.876 40.983,17.495 C40.983,16.114 39.863,14.995 38.483,14.995 ZM75.984,17.495 C75.984,16.114 74.865,14.995 73.484,14.995 C72.103,14.995 70.984,16.114 70.984,17.495 C70.984,18.876 72.103,19.995 73.484,19.995 C74.865,19.995 75.984,18.876 75.984,17.495 ZM55.983,37.498 C57.364,37.498 58.483,36.377 58.483,34.997 C58.483,33.616 57.364,32.497 55.983,32.497 C54.603,32.497 53.483,33.616 53.483,34.997 C53.483,36.377 54.603,37.498 55.983,37.498 ZM95.984,7.494 C95.984,6.113 94.865,4.994 93.484,4.994 L8.482,4.994 C7.101,4.994 5.982,6.113 5.982,7.494 L5.982,67.500 C5.982,68.881 7.101,70.000 8.482,70.000 L40.983,70.000 L40.983,75.001 L35.983,75.001 L35.983,85.001 L45.983,85.001 L45.983,90.002 L25.982,90.002 L25.982,85.001 L30.983,85.001 L30.983,75.001 L8.482,75.001 C4.340,75.001 0.982,71.642 0.982,67.500 L0.982,7.494 C0.982,3.351 4.340,-0.007 8.482,-0.007 L93.484,-0.007 C97.627,-0.007 100.985,3.351 100.985,7.494 L100.985,52.498 L95.984,52.498 L95.984,7.494 Z"/>
</svg>