<svg xmlns="http://www.w3.org/2000/svg" xmlns:xlink="http://www.w3.org/1999/xlink"  width="120" height="120" viewBox="0 0 120 120">
<path fill-rule="evenodd"  fill="#000"
 d="M112.506,85.001 L100.004,85.001 L100.004,97.503 C100.004,101.646 96.646,105.004 92.503,105.004 L67.501,105.004 L67.501,115.005 L72.501,115.005 L72.501,120.006 L65.000,120.006 L34.997,120.006 L27.496,120.006 L27.496,115.005 L32.497,115.005 L32.497,105.004 L7.494,105.004 C3.352,105.004 -0.006,101.646 -0.006,97.503 L-0.006,37.498 C-0.006,33.355 3.352,29.997 7.494,29.997 L34.997,29.997 L34.997,7.494 C34.997,3.351 38.356,-0.007 42.498,-0.007 L112.506,-0.007 C116.648,-0.007 120.006,3.351 120.006,7.494 L120.006,77.501 C120.006,81.644 116.648,85.001 112.506,85.001 ZM37.498,115.005 L62.500,115.005 L62.500,105.004 L37.498,105.004 L37.498,115.005 ZM34.997,77.501 L34.997,34.997 L7.494,34.997 C6.114,34.997 4.994,36.116 4.994,37.498 L4.994,85.001 L32.497,85.001 L32.497,90.002 L4.994,90.002 L4.994,97.503 C4.994,98.884 6.114,100.003 7.494,100.003 L92.503,100.003 C93.884,100.003 95.004,98.884 95.004,97.503 L95.004,85.001 L42.498,85.001 C38.356,85.001 34.997,81.644 34.997,77.501 ZM115.006,7.494 C115.006,6.113 113.886,4.994 112.506,4.994 L42.498,4.994 C41.117,4.994 39.998,6.113 39.998,7.494 L39.998,19.995 L100.004,19.995 L100.004,24.996 L39.998,24.996 L39.998,77.501 C39.998,78.881 41.117,80.001 42.498,80.001 L112.506,80.001 C113.886,80.001 115.006,78.881 115.006,77.501 L115.006,7.494 ZM102.504,75.001 L87.503,75.001 C83.360,75.001 80.002,71.642 80.002,67.500 L80.002,62.499 C80.002,58.357 83.360,54.999 87.503,54.999 L102.504,54.999 C106.647,54.999 110.005,58.357 110.005,62.499 L110.005,67.500 C110.005,71.642 106.647,75.001 102.504,75.001 ZM105.005,62.499 C105.005,61.119 103.885,59.999 102.504,59.999 L87.503,59.999 C86.122,59.999 85.003,61.119 85.003,62.499 L85.003,67.500 C85.003,68.881 86.122,70.000 87.503,70.000 L102.504,70.000 C103.885,70.000 105.005,68.881 105.005,67.500 L105.005,62.499 ZM102.504,49.998 L87.503,49.998 C83.360,49.998 80.002,46.640 80.002,42.498 L80.002,37.498 C80.002,33.355 83.360,29.997 87.503,29.997 L102.504,29.997 C106.647,29.997 110.005,33.355 110.005,37.498 L110.005,42.498 C110.005,46.640 106.647,49.998 102.504,49.998 ZM105.005,37.498 C105.005,36.116 103.885,34.997 102.504,34.997 L87.503,34.997 C86.122,34.997 85.003,36.116 85.003,37.498 L85.003,42.498 C85.003,43.878 86.122,44.998 87.503,44.998 L102.504,44.998 C103.885,44.998 105.005,43.878 105.005,42.498 L105.005,37.498 ZM105.005,19.995 L110.005,19.995 L110.005,24.996 L105.005,24.996 L105.005,19.995 ZM67.501,75.001 L52.499,75.001 C48.357,75.001 44.998,71.642 44.998,67.500 L44.998,62.499 C44.998,58.357 48.357,54.999 52.499,54.999 L67.501,54.999 C71.643,54.999 75.002,58.357 75.002,62.499 L75.002,67.500 C75.002,71.642 71.643,75.001 67.501,75.001 ZM70.001,62.499 C70.001,61.119 68.882,59.999 67.501,59.999 L52.499,59.999 C51.118,59.999 49.999,61.119 49.999,62.499 L49.999,67.500 C49.999,68.881 51.118,70.000 52.499,70.000 L67.501,70.000 C68.882,70.000 70.001,68.881 70.001,67.500 L70.001,62.499 ZM67.501,49.998 L52.499,49.998 C48.357,49.998 44.998,46.640 44.998,42.498 L44.998,37.498 C44.998,33.355 48.357,29.997 52.499,29.997 L67.501,29.997 C71.643,29.997 75.002,33.355 75.002,37.498 L75.002,42.498 C75.002,46.640 71.643,49.998 67.501,49.998 ZM70.001,37.498 C70.001,36.116 68.882,34.997 67.501,34.997 L52.499,34.997 C51.118,34.997 49.999,36.116 49.999,37.498 L49.999,42.498 C49.999,43.878 51.118,44.998 52.499,44.998 L67.501,44.998 C68.882,44.998 70.001,43.878 70.001,42.498 L70.001,37.498 ZM65.000,9.994 L70.001,9.994 L70.001,14.995 L65.000,14.995 L65.000,9.994 ZM54.999,9.994 L60.000,9.994 L60.000,14.995 L54.999,14.995 L54.999,9.994 ZM44.998,9.994 L49.999,9.994 L49.999,14.995 L44.998,14.995 L44.998,9.994 ZM14.995,47.498 L14.995,52.498 L9.995,52.498 L9.995,47.498 C9.995,43.356 13.353,39.997 17.495,39.997 L22.496,39.997 L22.496,44.998 L17.495,44.998 C16.115,44.998 14.995,46.117 14.995,47.498 Z"/>
</svg>