<svg xmlns="http://www.w3.org/2000/svg" xmlns:xlink="http://www.w3.org/1999/xlink"  width="120" height="120" viewBox="0 0 120 120">
<path fill-rule="evenodd"  fill="#000"
 d="M110.005,100.003 L105.005,100.003 L105.005,95.003 L110.005,95.003 L110.005,100.003 ZM105.005,85.001 L110.005,85.001 L110.005,90.002 L105.005,90.002 L105.005,85.001 ZM95.004,100.003 L95.004,95.003 L100.004,95.003 L100.004,100.003 L95.004,100.003 ZM112.506,110.004 L87.503,110.004 L87.503,105.004 L112.506,105.004 C113.886,105.004 115.006,103.884 115.006,102.504 L115.006,62.499 C115.006,61.119 113.886,59.999 112.506,59.999 L47.499,59.999 C46.118,59.999 44.998,61.119 44.998,62.499 L44.998,102.504 C44.998,103.884 46.118,105.004 47.499,105.004 L72.501,105.004 L72.501,110.004 L47.499,110.004 C43.356,110.004 39.998,106.646 39.998,102.504 L39.998,62.499 C39.998,58.357 43.356,54.999 47.499,54.999 L112.506,54.999 C116.648,54.999 120.006,58.357 120.006,62.499 L120.006,102.504 C120.006,106.646 116.648,110.004 112.506,110.004 ZM100.004,39.997 L83.537,39.997 L74.269,49.265 C73.800,49.735 73.164,49.998 72.501,49.998 C71.120,49.998 70.001,48.878 70.001,47.498 L70.001,39.997 C61.716,39.997 54.999,33.280 54.999,24.996 C54.999,16.711 61.716,9.994 70.001,9.994 L100.004,9.994 C108.289,9.994 115.006,16.711 115.006,24.996 C115.006,33.280 108.289,39.997 100.004,39.997 ZM100.004,14.995 L70.001,14.995 C64.478,14.995 60.000,19.472 60.000,24.996 C60.000,30.519 64.478,34.997 70.001,34.997 L72.501,34.997 C73.882,34.997 75.002,36.116 75.002,37.498 L75.002,41.462 L80.735,35.730 C81.203,35.260 81.839,34.997 82.502,34.997 L100.004,34.997 C105.528,34.997 110.005,30.519 110.005,24.996 C110.005,19.472 105.528,14.995 100.004,14.995 ZM75.002,22.496 L105.005,22.496 L105.005,27.496 L75.002,27.496 L75.002,22.496 ZM65.000,22.496 L70.001,22.496 L70.001,27.496 L65.000,27.496 L65.000,22.496 ZM37.498,44.998 C41.804,44.994 45.961,46.583 49.169,49.456 L45.833,53.181 C43.542,51.130 40.573,49.997 37.498,49.998 L34.538,49.998 C33.505,52.905 30.758,54.999 27.496,54.999 C24.235,54.999 21.488,52.905 20.455,49.998 L17.495,49.998 C10.595,50.006 5.002,55.599 4.994,62.499 L4.994,90.002 L12.495,90.002 L12.495,72.500 L17.495,72.500 L17.495,90.002 L34.997,90.002 L34.997,95.003 L2.494,95.003 C1.113,95.003 -0.006,93.884 -0.006,92.502 L-0.006,62.499 C0.005,52.839 7.834,45.009 17.495,44.998 L19.996,44.998 L19.996,42.968 C15.520,40.372 12.500,35.542 12.495,29.997 L12.495,24.996 C11.114,24.996 9.995,23.877 9.995,22.496 L9.995,17.495 C9.995,7.829 17.831,-0.007 27.496,-0.007 C37.162,-0.007 44.998,7.829 44.998,17.495 L44.998,22.496 C44.998,23.877 43.879,24.996 42.498,24.996 L42.498,29.997 C42.493,35.542 39.473,40.372 34.997,42.968 L34.997,44.998 L37.498,44.998 ZM24.996,47.498 C24.996,48.878 26.116,49.998 27.496,49.998 C28.877,49.998 29.997,48.878 29.997,47.498 L29.997,44.771 C29.182,44.909 28.350,44.997 27.496,44.998 C26.643,44.997 25.811,44.909 24.996,44.771 L24.996,47.498 ZM39.998,19.995 L39.998,17.495 C39.998,10.591 34.401,4.994 27.496,4.994 C20.592,4.994 14.995,10.591 14.995,17.495 L14.995,19.995 C17.582,20.159 19.818,18.204 19.994,15.615 C20.008,15.408 20.009,15.201 19.996,14.995 C19.996,13.614 21.115,12.495 22.496,12.495 C23.877,12.495 24.996,13.614 24.996,14.995 C24.996,14.995 25.784,19.995 39.998,19.995 ZM37.498,29.997 L37.498,24.938 C30.027,24.613 25.733,22.842 23.278,20.872 C21.833,22.794 19.780,24.124 17.495,24.688 L17.495,29.997 C17.495,35.519 21.973,39.997 27.496,39.997 C33.020,39.997 37.498,35.519 37.498,29.997 ZM95.004,120.006 L65.000,120.006 L65.000,115.005 L95.004,115.005 L95.004,120.006 Z"/>
</svg>