<svg width="30" height="30" viewBox="0 0 30 30" fill="none" xmlns="http://www.w3.org/2000/svg">
<g clip-path="url(#clip0)">
<path d="M21.7242 12.4138C22.8669 12.4138 23.7932 11.4875 23.7932 10.3448C23.7932 9.20217 22.8669 8.27586 21.7242 8.27586C20.5816 8.27586 19.6553 9.20217 19.6553 10.3448C19.6553 11.4875 20.5816 12.4138 21.7242 12.4138Z" fill="black"/>
<path d="M27.931 12.4138C29.0737 12.4138 30 11.4875 30 10.3448C30 9.20217 29.0737 8.27586 27.931 8.27586C26.7884 8.27586 25.8621 9.20217 25.8621 10.3448C25.8621 11.4875 26.7884 12.4138 27.931 12.4138Z" fill="black"/>
<path d="M15.5174 12.4138C16.6601 12.4138 17.5864 11.4875 17.5864 10.3448C17.5864 9.20217 16.6601 8.27586 15.5174 8.27586C14.3748 8.27586 13.4485 9.20217 13.4485 10.3448C13.4485 11.4875 14.3748 12.4138 15.5174 12.4138Z" fill="black"/>
<path d="M12.4226 17.5774C9.55918 14.714 8.91263 11.8505 8.76677 10.7033C8.72601 10.3861 8.83518 10.0679 9.06212 9.84258L11.3794 7.52638C11.7202 7.18572 11.7807 6.65481 11.5252 6.24621L7.83574 0.51724C7.55307 0.064782 6.97269 -0.0985144 6.49556 0.140171L0.572633 2.92965C0.186802 3.11964 -0.0401392 3.52958 0.00366774 3.95741C0.314013 6.90569 1.59936 14.1533 8.72177 21.2762C15.8442 28.3991 23.0907 29.684 26.0406 29.9943C26.4684 30.0381 26.8783 29.8112 27.0683 29.4253L29.8578 23.5024C30.0956 23.0263 29.9334 22.4475 29.4828 22.1643L23.7538 18.4759C23.3455 18.2201 22.8146 18.2802 22.4737 18.6207L20.1575 20.9379C19.9321 21.1649 19.614 21.274 19.2968 21.2333C18.1495 21.0874 15.2861 20.4409 12.4226 17.5774V17.5774Z" fill="black"/>
</g>
<defs>
<clipPath id="clip0">
<rect width="30" height="30" fill="white"/>
</clipPath>
</defs>
</svg>
