<svg width="28" height="28" viewBox="0 0 28 28" fill="none" xmlns="http://www.w3.org/2000/svg">
<path fill-rule="evenodd" clip-rule="evenodd" d="M14.5 1.9999C21.4035 1.9999 26.9999 7.59606 26.9999 14.4995C26.9999 21.4029 21.4035 26.9996 14.5 26.9996C7.59632 26.9996 1.99993 21.4029 1.99993 14.4995C1.99993 7.59606 7.59632 1.9999 14.5 1.9999Z" fill="#000"/>
<path fill-rule="evenodd" clip-rule="evenodd" d="M16 8.49963C16 7.67097 15.3284 6.99953 14.5 6.99953C13.6715 6.99953 13 7.67097 13 8.49963V12.9994H8.49996C7.67152 12.9994 6.99998 13.6708 6.99998 14.4995C6.99998 15.3276 7.67152 15.9996 8.49996 15.9996H13V20.4994C13 21.3275 13.6715 21.9995 14.5 21.9995C15.3284 21.9995 16 21.3275 16 20.4994V15.9996H20.5C21.3283 15.9996 22 15.3276 22 14.4995C22 13.6708 21.3283 12.9994 20.5 12.9994H16V8.49963Z" fill="#fff"/>
</svg>
