<svg width="120" height="120" viewBox="0 0 120 120" fill="none" xmlns="http://www.w3.org/2000/svg">
<path fill-rule="evenodd"  fill="#000"
 d="M100.004,120.006 C88.963,119.994 80.015,111.046 80.002,100.004 L80.002,85.003 C80.002,73.955 88.957,65.000 100.004,65.000 C111.051,65.000 120.006,73.955 120.006,85.003 L120.006,100.004 C119.994,111.046 111.046,119.994 100.004,120.006 ZM115.006,85.003 C114.998,77.575 109.593,71.426 102.504,70.228 L102.504,82.502 L97.504,82.502 L97.504,70.228 C90.415,71.426 85.010,77.575 85.003,85.003 L85.003,100.004 C85.003,108.289 91.719,115.006 100.004,115.006 C108.289,115.006 115.006,108.289 115.006,100.004 L115.006,85.003 ZM101.772,60.732 C100.796,59.756 99.213,59.756 98.236,60.732 L94.701,57.197 C97.630,54.269 102.378,54.269 105.307,57.197 L101.772,60.732 ZM92.933,50.426 L89.398,46.891 C95.256,41.034 104.752,41.034 110.610,46.891 L107.075,50.426 C103.116,46.654 96.893,46.654 92.933,50.426 ZM9.995,9.994 L39.998,9.994 L39.998,14.995 L9.995,14.995 L9.995,9.994 ZM14.995,42.498 C14.995,43.879 16.115,44.998 17.495,44.998 L22.496,44.998 L22.496,49.999 L17.495,49.999 C13.353,49.999 9.995,46.641 9.995,42.498 L9.995,37.497 L14.995,37.497 L14.995,42.498 ZM9.995,27.496 L14.995,27.496 L14.995,32.497 L9.995,32.497 L9.995,27.496 ZM49.999,9.994 L49.999,14.995 L44.998,14.995 L44.998,9.994 L49.999,9.994 ZM60.000,9.994 L60.000,14.995 L54.999,14.995 L54.999,9.994 L60.000,9.994 ZM89.271,26.991 L82.002,34.264 C81.532,34.734 80.894,34.998 80.230,34.997 C79.567,34.997 78.931,34.733 78.462,34.264 L71.136,26.941 L69.268,28.809 C68.292,29.785 66.709,29.785 65.733,28.808 C65.264,28.340 65.001,27.704 65.000,27.041 L65.000,12.495 C65.000,11.114 66.120,9.994 67.501,9.994 L82.047,9.994 C83.428,9.994 84.547,11.114 84.547,12.495 C84.547,13.158 84.284,13.794 83.815,14.262 L81.945,16.132 L89.271,23.456 C90.247,24.432 90.247,26.015 89.271,26.991 ZM76.642,17.888 C76.173,17.419 75.909,16.783 75.909,16.120 C75.911,15.729 76.005,15.343 76.184,14.995 L70.001,14.995 L70.001,21.178 C70.353,20.999 70.742,20.906 71.136,20.906 C71.799,20.906 72.435,21.169 72.904,21.638 L80.230,28.961 L83.968,25.211 L76.642,17.888 ZM95.004,7.494 C95.004,6.114 93.884,4.994 92.503,4.994 L7.494,4.994 C6.113,4.994 4.994,6.114 4.994,7.494 L4.994,54.999 L85.003,54.999 L85.003,60.000 L4.994,60.000 L4.994,67.501 C4.994,68.881 6.113,70.001 7.494,70.001 L80.002,70.001 L80.002,75.001 L67.501,75.001 L67.501,87.502 C67.501,88.884 66.381,90.003 65.000,90.003 L34.997,90.003 C33.616,90.003 32.497,88.884 32.497,87.502 L32.497,75.001 L7.494,75.001 C3.352,75.001 -0.006,71.643 -0.006,67.501 L-0.006,7.494 C-0.006,3.351 3.352,-0.007 7.494,-0.007 L92.503,-0.007 C96.646,-0.007 100.004,3.351 100.004,7.494 L100.004,34.997 L95.004,34.997 L95.004,7.494 ZM37.498,85.003 L62.500,85.003 L62.500,75.001 L37.498,75.001 L37.498,85.003 Z"/>
</svg>