<svg width="120" height="120" viewBox="0 0 120 120" fill="none" xmlns="http://www.w3.org/2000/svg">
<path fill-rule="evenodd"  fill="#000"
 d="M82.502,75.001 L82.502,80.002 L37.498,80.002 L37.498,75.001 L82.502,75.001 ZM107.505,120.006 C100.604,119.998 95.012,114.405 95.004,107.505 L95.004,97.504 C95.004,91.456 99.299,86.412 105.005,85.254 L105.005,78.751 C105.005,76.680 103.326,75.001 101.254,75.001 C96.421,75.001 92.503,71.084 92.503,66.250 L92.503,65.000 L32.497,65.000 L32.497,70.001 C32.497,75.524 28.019,80.002 22.496,80.002 C19.734,80.002 17.495,82.241 17.495,85.003 L82.502,85.003 C86.645,85.003 90.003,88.361 90.003,92.503 L90.003,112.505 C90.003,116.648 86.645,120.006 82.502,120.006 L7.494,120.006 C3.352,120.006 -0.006,116.648 -0.006,112.505 L-0.006,92.503 C-0.006,88.361 3.352,85.003 7.494,85.003 L12.495,85.003 C12.495,79.479 16.972,75.001 22.496,75.001 C25.258,75.001 27.496,72.763 27.496,70.001 L27.496,65.000 L17.495,65.000 C13.353,65.000 9.995,61.642 9.995,57.499 L9.995,7.494 C9.995,3.351 13.353,-0.007 17.495,-0.007 L102.504,-0.007 C106.647,-0.007 110.005,3.351 110.005,7.494 L110.005,57.499 C110.005,61.642 106.647,65.000 102.504,65.000 L97.504,65.000 L97.504,66.250 C97.504,68.321 99.183,70.001 101.254,70.001 C106.087,70.001 110.005,73.919 110.005,78.751 L110.005,85.254 C115.711,86.412 120.006,91.456 120.006,97.504 L120.006,107.505 C119.998,114.405 114.406,119.998 107.505,120.006 ZM7.494,90.003 C6.114,90.003 4.994,91.123 4.994,92.503 L4.994,112.505 C4.994,113.886 6.114,115.006 7.494,115.006 L82.502,115.006 C83.883,115.006 85.003,113.886 85.003,112.505 L85.003,92.503 C85.003,91.123 83.883,90.003 82.502,90.003 L7.494,90.003 ZM102.504,60.000 C103.885,60.000 105.005,58.880 105.005,57.499 L105.005,7.494 C105.005,6.114 103.885,4.994 102.504,4.994 L17.495,4.994 C16.115,4.994 14.995,6.114 14.995,7.494 L14.995,44.998 L100.004,44.998 L100.004,49.999 L14.995,49.999 L14.995,57.499 C14.995,58.880 16.115,60.000 17.495,60.000 L102.504,60.000 ZM115.006,97.504 C115.006,94.242 112.912,91.495 110.005,90.462 L110.005,97.504 L105.005,97.504 L105.005,90.462 C102.098,91.495 100.004,94.242 100.004,97.504 L100.004,107.505 C100.004,111.647 103.362,115.006 107.505,115.006 C111.648,115.006 115.006,111.647 115.006,107.505 L115.006,97.504 ZM24.996,17.495 L24.996,22.496 L19.996,22.496 L19.996,17.495 C19.996,13.353 23.354,9.994 27.496,9.994 L32.497,9.994 L32.497,14.995 L27.496,14.995 C26.116,14.995 24.996,16.114 24.996,17.495 ZM24.996,32.497 L19.996,32.497 L19.996,27.496 L24.996,27.496 L24.996,32.497 ZM70.001,105.004 L80.002,105.004 L80.002,110.005 L70.001,110.005 L70.001,105.004 ZM70.001,95.003 L80.002,95.003 L80.002,100.004 L70.001,100.004 L70.001,95.003 ZM54.999,105.004 L65.000,105.004 L65.000,110.005 L54.999,110.005 L54.999,105.004 ZM54.999,95.003 L65.000,95.003 L65.000,100.004 L54.999,100.004 L54.999,95.003 ZM39.998,105.004 L49.999,105.004 L49.999,110.005 L39.998,110.005 L39.998,105.004 ZM39.998,95.003 L49.999,95.003 L49.999,100.004 L39.998,100.004 L39.998,95.003 ZM24.996,105.004 L34.997,105.004 L34.997,110.005 L24.996,110.005 L24.996,105.004 ZM24.996,95.003 L34.997,95.003 L34.997,100.004 L24.996,100.004 L24.996,95.003 ZM9.995,105.004 L19.996,105.004 L19.996,110.005 L9.995,110.005 L9.995,105.004 ZM9.995,95.003 L19.996,95.003 L19.996,100.004 L9.995,100.004 L9.995,95.003 Z"/>
</svg>