<svg width="120" height="120" viewBox="0 0 120 120" fill="none" xmlns="http://www.w3.org/2000/svg">
<path fill-rule="evenodd"  fill="#000"
 d="M93.005,70.524 C92.388,70.524 91.784,70.276 91.348,69.837 C90.912,69.401 90.661,68.799 90.661,68.180 C90.661,67.564 90.912,66.959 91.348,66.523 C91.784,66.087 92.388,65.837 93.005,65.837 C93.621,65.837 94.226,66.087 94.662,66.523 C95.098,66.962 95.349,67.564 95.349,68.180 C95.349,68.799 95.098,69.401 94.662,69.837 C94.226,70.276 93.621,70.524 93.005,70.524 ZM83.629,120.006 L12.371,120.006 C5.909,120.006 0.651,114.749 0.651,108.286 L0.651,21.090 C0.651,14.627 5.909,9.369 12.371,9.369 L28.259,9.369 C29.429,7.873 31.249,6.908 33.291,6.908 L37.104,6.908 C38.970,2.761 43.138,-0.007 47.794,-0.007 L48.205,-0.007 C52.862,-0.007 57.030,2.761 58.896,6.908 L62.709,6.908 C64.751,6.908 66.571,7.873 67.741,9.369 L83.629,9.369 C90.091,9.369 95.349,14.627 95.349,21.090 L95.349,58.149 C95.349,59.443 94.299,60.493 93.005,60.493 C91.710,60.493 90.661,59.443 90.661,58.149 L90.661,21.090 C90.661,17.212 87.506,14.058 83.629,14.058 L69.096,14.058 L69.096,18.745 L81.285,18.745 C83.870,18.745 85.973,20.848 85.973,23.433 L85.973,105.942 C85.973,108.527 83.870,110.630 81.285,110.630 L14.715,110.630 C12.130,110.630 10.027,108.527 10.027,105.942 L10.027,23.433 C10.027,20.848 12.130,18.745 14.715,18.745 L26.904,18.745 L26.904,14.058 L12.371,14.058 C8.494,14.058 5.339,17.212 5.339,21.090 L5.339,108.286 C5.339,112.164 8.494,115.318 12.371,115.318 L83.629,115.318 C87.506,115.318 90.661,112.164 90.661,108.286 L90.661,77.800 C90.661,76.505 91.710,75.455 93.005,75.455 C94.299,75.455 95.349,76.505 95.349,77.800 L95.349,108.286 C95.349,114.749 90.091,120.006 83.629,120.006 ZM64.408,13.295 C64.408,12.358 63.646,11.596 62.709,11.596 L57.253,11.596 C56.195,11.596 55.268,10.887 54.991,9.866 C54.162,6.814 51.372,4.681 48.206,4.681 L47.794,4.681 C44.628,4.681 41.838,6.814 41.009,9.866 C40.732,10.887 39.805,11.596 38.747,11.596 L33.291,11.596 C32.354,11.596 31.592,12.358 31.592,13.295 L31.592,18.745 L64.408,18.745 L64.408,13.295 ZM14.715,23.433 L14.715,105.942 L81.285,105.942 C81.287,105.942 81.288,105.942 81.288,105.942 L81.285,23.433 L66.752,23.433 L29.248,23.433 L14.715,23.433 ZM29.666,32.887 C30.582,31.972 32.066,31.972 32.981,32.887 L33.255,33.162 L36.487,29.930 C37.402,29.014 38.887,29.014 39.802,29.930 C40.717,30.845 40.717,32.329 39.802,33.244 L34.912,38.134 C34.455,38.592 33.855,38.820 33.255,38.820 C32.655,38.820 32.055,38.592 31.598,38.134 L29.666,36.203 C28.751,35.287 28.751,33.803 29.666,32.887 ZM37.218,43.592 C37.218,44.886 36.168,45.936 34.874,45.936 L23.622,45.936 C22.328,45.936 21.278,44.886 21.278,43.592 L21.278,32.340 C21.278,31.046 22.328,29.997 23.622,29.997 C24.917,29.997 25.966,31.046 25.966,32.340 L25.966,41.248 L34.874,41.248 C36.168,41.248 37.218,42.297 37.218,43.592 ZM23.622,55.243 C24.917,55.243 25.966,56.293 25.966,57.588 L25.966,66.495 L34.874,66.495 C36.168,66.495 37.218,67.544 37.218,68.839 C37.218,70.133 36.168,71.182 34.874,71.182 L23.622,71.182 C22.328,71.182 21.278,70.133 21.278,68.839 L21.278,57.588 C21.278,56.293 22.328,55.243 23.622,55.243 ZM23.622,80.627 C24.917,80.627 25.966,81.676 25.966,82.971 L25.966,91.878 L34.874,91.878 C36.168,91.878 37.218,92.928 37.218,94.222 C37.218,95.517 36.168,96.566 34.874,96.566 L23.622,96.566 C22.328,96.566 21.278,95.517 21.278,94.222 L21.278,82.971 C21.278,81.676 22.328,80.627 23.622,80.627 ZM39.802,58.492 L34.912,63.381 C34.455,63.839 33.855,64.068 33.255,64.068 C32.655,64.068 32.055,63.839 31.598,63.381 L29.666,61.449 C28.751,60.534 28.751,59.050 29.666,58.134 C30.582,57.219 32.066,57.219 32.981,58.134 L33.255,58.408 L36.487,55.176 C37.402,54.261 38.887,54.261 39.802,55.176 C40.717,56.092 40.717,57.576 39.802,58.492 ZM33.255,89.451 C32.655,89.451 32.055,89.222 31.598,88.765 L29.666,86.833 C28.751,85.917 28.751,84.433 29.666,83.518 C30.582,82.603 32.066,82.603 32.981,83.518 L33.255,83.792 L36.487,80.560 C37.402,79.644 38.887,79.644 39.802,80.560 C40.717,81.475 40.717,82.960 39.802,83.875 L34.912,88.765 C34.455,89.222 33.855,89.451 33.255,89.451 ZM47.984,41.935 C48.419,41.499 49.024,41.248 49.641,41.248 C50.257,41.248 50.862,41.499 51.298,41.935 C51.734,42.370 51.985,42.975 51.985,43.592 C51.985,44.208 51.734,44.813 51.298,45.249 C50.862,45.685 50.257,45.936 49.641,45.936 C49.024,45.936 48.419,45.685 47.984,45.249 C47.548,44.813 47.297,44.208 47.297,43.592 C47.297,42.975 47.548,42.370 47.984,41.935 ZM49.641,91.878 L73.897,91.878 C75.192,91.878 76.241,92.928 76.241,94.222 C76.241,95.517 75.192,96.566 73.897,96.566 L49.641,96.566 C48.346,96.566 47.297,95.517 47.297,94.222 C47.297,92.928 48.346,91.878 49.641,91.878 Z"/>
</svg>