<svg width="135" height="121" viewBox="0 0 135 121" fill="none" xmlns="http://www.w3.org/2000/svg">
<path fill-rule="evenodd" clip-rule="evenodd" d="M53.2756 40.7409C55.6668 39.8522 58.1851 39.4018 60.7619 39.4018C66.2586 39.4018 71.4886 41.4756 75.4883 45.2412C75.9943 45.7177 76.6397 45.9541 77.284 45.9541C77.981 45.9541 78.6767 45.6774 79.1924 45.1297C80.1844 44.0763 80.1344 42.4179 79.0812 41.4261C74.1053 36.7416 67.5995 34.161 60.7619 34.161C57.56 34.161 54.4268 34.7225 51.4496 35.829C50.0931 36.3336 49.4022 37.8417 49.9065 39.1979C50.4106 40.5544 51.9188 41.2456 53.2756 40.7409ZM113.974 47.8776L113.958 47.8138C113.61 46.4089 114.467 44.9883 115.872 44.641C117.276 44.293 118.697 45.1498 119.045 46.5549L119.066 46.6431C119.408 48.0492 118.544 49.4653 117.137 49.8064C116.93 49.8568 116.722 49.8807 116.518 49.8807C115.336 49.8807 114.264 49.0765 113.974 47.8776ZM35.4257 52.3576C35.8874 50.9862 37.3733 50.2488 38.7448 50.7099C40.1163 51.1716 40.8539 52.6573 40.3922 54.0288C39.6509 56.2312 39.2748 58.5386 39.2748 60.8871C39.2748 68.4854 43.1643 75.3681 49.6792 79.299C50.9183 80.0468 51.3169 81.6569 50.5691 82.8962C50.077 83.7116 49.211 84.1631 48.3232 84.1631C47.862 84.1631 47.3957 84.0415 46.9718 83.786C38.8711 78.8983 34.0345 70.3382 34.0345 60.8877C34.0345 57.9693 34.5027 55.0997 35.4257 52.3576ZM132.31 61.677C133.758 61.677 134.931 62.8499 134.931 64.2969H134.93V80.3661C134.93 82.7544 134.037 85.005 132.413 86.7393V114.916C132.413 118.212 129.731 120.894 126.435 120.894L60.7618 120.891C44.7336 120.891 29.6644 114.65 18.3311 103.316C6.99724 91.9833 0.755518 76.915 0.755518 60.8877C0.755518 50.1192 3.62909 39.6037 9.07457 30.3911L1.54491 22.8258C0.797988 22.0753 0.576322 20.9496 0.982527 19.9722C1.3886 18.9943 2.34335 18.3574 3.40208 18.3574H18.2984V3.50783C18.2984 2.44855 18.9357 1.49346 19.9143 1.08768C20.8923 0.681779 22.0189 0.904901 22.7691 1.65286L30.3104 9.17616C39.5114 3.74841 50.0113 0.884729 60.7614 0.884729C72.4304 0.884729 83.7438 4.23709 93.4788 10.5801C102.961 16.7585 110.483 25.4382 115.231 35.6808C115.84 36.9938 115.269 38.5514 113.956 39.1601C113.599 39.3253 113.225 39.4039 112.856 39.4039C111.867 39.4039 110.92 38.8414 110.477 37.8847C101.533 18.5917 82.0187 6.12502 60.7614 6.12502C51.4072 6.12502 42.2625 8.50003 34.1561 13.0119L43.0217 21.8554C43.5146 22.3466 43.7915 23.0144 43.7915 23.7102V40.1906L59.9487 56.3464C60.9718 57.37 60.9718 59.029 59.9487 60.052C59.4371 60.5641 58.7664 60.8197 58.0958 60.8197C57.4252 60.8197 56.7547 60.5641 56.243 60.052L40.0862 43.8962H23.6053C22.9083 43.8962 22.2397 43.6185 21.7479 43.1244L12.9069 34.2417C8.37971 42.3585 5.99632 51.5173 5.99632 60.8877C5.99632 90.853 30.1909 115.27 60.0716 115.641C60.0424 115.403 60.0258 115.162 60.0258 114.916V105.421C48.5297 105.223 37.4203 100.541 29.2633 92.3844C18.6625 81.7838 14.1208 66.6745 17.1141 51.9656C17.4027 50.5479 18.7857 49.6321 20.2043 49.9205C21.6225 50.209 22.538 51.5927 22.2494 53.0105C19.6077 65.9913 23.6149 79.3255 32.9693 88.6793C40.2567 95.9663 49.8034 100.01 60.0258 100.184V86.7384C58.4657 85.0688 57.508 82.8303 57.508 80.3709V64.2969C57.508 62.8499 58.681 61.677 60.1283 61.677H79.8422V56.2561C79.8422 53.6213 81.9862 51.4775 84.6212 51.4775H98.926C97.2201 44.5267 93.6599 38.2007 88.5551 33.096C79.4385 23.9796 66.4103 19.9138 53.7059 22.2192C52.2822 22.4768 50.9181 21.5329 50.6597 20.1088C50.4014 18.6852 51.3463 17.321 52.7702 17.0629C67.1659 14.451 81.9286 19.0586 92.2608 29.3903C98.3499 35.4795 102.498 43.1047 104.3 51.4775H107.818C110.453 51.4775 112.597 53.6213 112.597 56.2561V61.677H132.31ZM38.5512 24.7977L23.5388 9.82265V19.8941L38.5512 34.9397V24.7977ZM34.8452 38.6554L19.8311 23.5982H9.70696L24.6939 38.6554H34.8452ZM107.355 56.7178H85.0826V61.677H107.355V56.7178ZM129.69 66.9173H62.7484V80.3703C62.7484 82.6279 64.5851 84.4642 66.8428 84.4642H88.395V82.0452C88.395 80.3226 89.7965 78.9212 91.519 78.9212H100.92C102.642 78.9212 104.044 80.3226 104.044 82.0452V84.4467L125.593 84.4605H125.596C126.689 84.4605 127.717 84.0346 128.49 83.2621C129.264 82.4887 129.69 81.4603 129.69 80.3661V66.9173ZM98.8029 88.768V84.162H93.636V88.768C93.636 90.1922 94.7949 91.3512 96.2194 91.3512C97.6437 91.3512 98.8029 90.1927 98.8029 88.768ZM69.2158 115.653H126.435C126.842 115.653 127.172 115.323 127.172 114.916V108.314H109.976C108.529 108.314 107.355 107.141 107.355 105.694C107.355 104.247 108.529 103.074 109.976 103.074H127.172V89.5659C126.656 89.6536 126.13 89.7003 125.596 89.7003H125.59L103.988 89.687C103.531 93.5689 100.222 96.5915 96.2194 96.5915C92.2223 96.5915 88.9178 93.5785 88.4532 89.705H66.8428C66.3052 89.705 65.7791 89.6567 65.2663 89.5691V114.916C65.2663 115.313 65.5821 115.635 65.9755 115.65H69.1599C69.1693 115.65 69.1786 115.651 69.1878 115.652C69.1971 115.652 69.2063 115.653 69.2158 115.653ZM95.2824 103.842C95.7723 103.354 96.4458 103.074 97.1376 103.074C97.8267 103.074 98.5027 103.355 98.9901 103.842C99.4776 104.329 99.7579 105.006 99.7579 105.695C99.7579 106.384 99.4776 107.06 98.9901 107.547C98.5001 108.035 97.8267 108.314 97.1376 108.314C96.4458 108.314 95.7723 108.034 95.2824 107.547C94.7949 107.06 94.5172 106.384 94.5172 105.695C94.5172 105.006 94.7949 104.329 95.2824 103.842Z" fill="#000"/>
</svg>
